<svg width="42" height="42" viewBox="0 0 42 42" fill="none" xmlns="http://www.w3.org/2000/svg">
<g clip-path="url(#clip0_14_63)">
<path d="M33.25 31.5H10.5C8.64349 31.5 6.86301 30.7625 5.55025 29.4497C4.2375 28.137 3.5 26.3565 3.5 24.5C3.5 22.6435 4.2375 20.863 5.55025 19.5503C6.86301 18.2375 8.64349 17.5 10.5 17.5H11.7425C12.8975 13.4575 16.625 10.5 21 10.5C23.5527 10.5 26.0009 11.5141 27.8059 13.3191C29.6109 15.1241 30.625 17.5723 30.625 20.125V21H33.25C34.6424 21 35.9777 21.5531 36.9623 22.5377C37.9469 23.5223 38.5 24.8576 38.5 26.25C38.5 27.6424 37.9469 28.9777 36.9623 29.9623C35.9777 30.9469 34.6424 31.5 33.25 31.5ZM33.8625 17.5525C33.2711 14.5767 31.6657 11.8983 29.3201 9.97392C26.9745 8.04957 24.034 6.99851 21 7C15.9425 7 11.55 9.87 9.3625 14.0525C6.78892 14.3345 4.41007 15.5568 2.68224 17.4848C0.954405 19.4129 -0.000743625 21.911 4.34388e-07 24.5C4.34388e-07 27.2848 1.10625 29.9555 3.07538 31.9246C5.04451 33.8938 7.71523 35 10.5 35H33.25C34.3991 35 35.5369 34.7737 36.5985 34.3339C37.6601 33.8942 38.6247 33.2497 39.4372 32.4372C40.2497 31.6247 40.8942 30.6601 41.3339 29.5985C41.7737 28.5369 42 27.3991 42 26.25C42 21.63 38.4125 17.885 33.8625 17.5525Z" fill="white"/>
</g>
<defs>
<clipPath id="clip0_14_63">
<rect width="42" height="42" fill="white"/>
</clipPath>
</defs>
</svg>
