<svg width="26" height="24" viewBox="0 0 26 24" fill="none" xmlns="http://www.w3.org/2000/svg">
<path d="M8.99773 12L7.58192 12.89V11.11L8.99773 12ZM12.4681 9.82V7.34L8.03967 10.12L10.009 11.36L12.4681 9.82ZM18.0355 10.12L13.5964 7.34V9.82L16.0555 11.36L18.0355 10.12ZM8.03967 13.88L12.4681 16.66V14.18L10.009 12.64L8.03967 13.88ZM13.5964 14.18V16.66L18.0355 13.88L16.0555 12.64L13.5964 14.18ZM13.0322 10.74L11.031 12L13.0322 13.26L15.0335 12L13.0322 10.74ZM23.6774 12C23.6774 17.5 18.8871 22 13.0322 22C7.17741 22 2.38708 17.5 2.38708 12C2.38708 6.5 7.17741 2 13.0322 2C18.8871 2 23.6774 6.5 23.6774 12ZM19.611 10.12V10.05L19.6003 10L19.5897 9.95C19.579 9.94 19.579 9.93 19.5684 9.91L19.5577 9.89L19.5364 9.85L19.5258 9.83L19.5045 9.8L19.4832 9.77L19.4513 9.74L19.4193 9.72V9.7L19.3768 9.68L19.3661 9.67L13.3516 5.91C13.2588 5.85127 13.1495 5.8199 13.0376 5.8199C12.9257 5.8199 12.8163 5.85127 12.7235 5.91L6.69838 9.67V9.68L6.64515 9.7V9.72L6.61321 9.74L6.58128 9.77L6.57063 9.8L6.5387 9.83L6.52805 9.85L6.50676 9.89L6.49612 9.91L6.47483 9.95V10H6.46418L6.45354 10.05V13.95L6.46418 14H6.47483V14.05C6.48547 14.06 6.48547 14.07 6.49612 14.09L6.50676 14.11L6.52805 14.15L6.5387 14.17L6.55999 14.2L6.58128 14.23L6.61321 14.26L6.64515 14.28V14.3L6.68773 14.32L6.69838 14.33L12.7235 18.1C12.8087 18.16 12.9258 18.18 13.0322 18.18C13.1387 18.18 13.2558 18.15 13.3516 18.1L19.3661 14.33L19.3768 14.32L19.4193 14.3V14.28L19.4513 14.26L19.4832 14.23L19.5045 14.2L19.5258 14.17L19.5364 14.15L19.5577 14.11L19.5684 14.09L19.5897 14.05V14H19.6003L19.611 13.95V10.12ZM18.4826 12.89V11.11L17.0668 12L18.4826 12.89Z" fill="black"/>
</svg>
