<svg width="52" height="52" viewBox="0 0 52 52" fill="none" xmlns="http://www.w3.org/2000/svg">
<path d="M8.66667 2.16663H43.3333C43.908 2.16663 44.4591 2.3949 44.8654 2.80123C45.2717 3.20756 45.5 3.75866 45.5 4.33329V13C45.5 13.5746 45.2717 14.1257 44.8654 14.532C44.4591 14.9384 43.908 15.1666 43.3333 15.1666H8.66667C8.09203 15.1666 7.54093 14.9384 7.1346 14.532C6.72827 14.1257 6.5 13.5746 6.5 13V4.33329C6.5 3.75866 6.72827 3.20756 7.1346 2.80123C7.54093 2.3949 8.09203 2.16663 8.66667 2.16663ZM8.66667 19.5H43.3333C43.908 19.5 44.4591 19.7282 44.8654 20.1346C45.2717 20.5409 45.5 21.092 45.5 21.6666V30.3333C45.5 30.9079 45.2717 31.459 44.8654 31.8654C44.4591 32.2717 43.908 32.5 43.3333 32.5H8.66667C8.09203 32.5 7.54093 32.2717 7.1346 31.8654C6.72827 31.459 6.5 30.9079 6.5 30.3333V21.6666C6.5 21.092 6.72827 20.5409 7.1346 20.1346C7.54093 19.7282 8.09203 19.5 8.66667 19.5ZM8.66667 36.8333H43.3333C43.908 36.8333 44.4591 37.0616 44.8654 37.4679C45.2717 37.8742 45.5 38.4253 45.5 39V47.6666C45.5 48.2413 45.2717 48.7924 44.8654 49.1987C44.4591 49.605 43.908 49.8333 43.3333 49.8333H8.66667C8.09203 49.8333 7.54093 49.605 7.1346 49.1987C6.72827 48.7924 6.5 48.2413 6.5 47.6666V39C6.5 38.4253 6.72827 37.8742 7.1346 37.4679C7.54093 37.0616 8.09203 36.8333 8.66667 36.8333ZM19.5 10.8333H21.6667V6.49996H19.5V10.8333ZM19.5 28.1666H21.6667V23.8333H19.5V28.1666ZM19.5 45.5H21.6667V41.1666H19.5V45.5ZM10.8333 6.49996V10.8333H15.1667V6.49996H10.8333ZM10.8333 23.8333V28.1666H15.1667V23.8333H10.8333ZM10.8333 41.1666V45.5H15.1667V41.1666H10.8333Z" fill="white"/>
</svg>
