<svg width="27" height="24" viewBox="0 0 27 24" fill="none" xmlns="http://www.w3.org/2000/svg">
<path d="M21.8064 8L13.2903 13L4.77417 8V6L13.2903 11L21.8064 6V8ZM21.8064 4H4.77417C3.59256 4 2.64514 4.89 2.64514 6V18C2.64514 18.5304 2.86945 19.0391 3.26872 19.4142C3.66799 19.7893 4.20952 20 4.77417 20H21.8064C22.3711 20 22.9126 19.7893 23.3119 19.4142C23.7112 19.0391 23.9355 18.5304 23.9355 18V6C23.9355 5.46957 23.7112 4.96086 23.3119 4.58579C22.9126 4.21071 22.3711 4 21.8064 4Z" fill="black"/>
</svg>
