<svg width="56" height="56" viewBox="0 0 56 56" fill="none" xmlns="http://www.w3.org/2000/svg">
<path d="M7.00004 4.66669C5.76236 4.66669 4.57538 5.15835 3.70021 6.03352C2.82504 6.90869 2.33337 8.09568 2.33337 9.33335V37.3334C2.33337 38.571 2.82504 39.758 3.70021 40.6332C4.57538 41.5084 5.76236 42 7.00004 42H23.3334V46.6667H18.6667V51.3334H37.3334V46.6667H32.6667V42H49C50.2377 42 51.4247 41.5084 52.2999 40.6332C53.175 39.758 53.6667 38.571 53.6667 37.3334V9.33335C53.6667 8.09568 53.175 6.90869 52.2999 6.03352C51.4247 5.15835 50.2377 4.66669 49 4.66669H7.00004ZM7.00004 9.33335H49V37.3334H7.00004V9.33335ZM35 11.6667L26.8334 19.8334L35 28L38.2667 24.7334L33.3667 19.8334L38.2667 14.9334L35 11.6667ZM21 18.6667L17.7334 21.9334L22.6334 26.8334L17.7334 31.7334L21 35L29.1667 26.8334" fill="white"/>
</svg>
