<svg width="34" height="34" viewBox="0 0 34 34" fill="none" xmlns="http://www.w3.org/2000/svg">
<g clip-path="url(#clip0_36_29)">
<path d="M12.8011 8.59434L19.0543 16.398L20.4947 13.0781L20.6476 12.9171C20.8739 12.7358 21.1518 12.6669 21.4252 12.7041L22.4842 12.8423L21.2867 19.1839C21.2527 19.5572 21.0796 19.9009 20.7753 20.1448L15.7029 24.2094C15.102 24.6909 14.0946 24.6011 13.5943 23.9768L10.8679 20.5744C10.4865 20.0984 10.4282 19.4659 10.6933 18.9972L13.1726 14.1913L14.0355 13.3332L11.2403 9.84499C11.0745 9.63802 10.9977 9.37365 11.0267 9.11003C11.0558 8.84641 11.1884 8.60514 11.3954 8.4393C11.6024 8.27345 11.8667 8.19661 12.1303 8.22569C12.394 8.25477 12.6352 8.38737 12.8011 8.59434ZM15.783 26.7081L22.0259 21.7055L23.9019 24.0466L17.659 29.0492L15.783 26.7081Z" fill="black"/>
</g>
<rect x="0.702845" y="15.0853" width="23" height="23" transform="rotate(-38.706 0.702845 15.0853)" stroke="white"/>
<defs>
<clipPath id="clip0_36_29">
<rect y="15.0078" width="24" height="24" transform="rotate(-38.706 0 15.0078)" fill="white"/>
</clipPath>
</defs>
</svg>
