<svg width="34" height="34" viewBox="0 0 34 34" fill="none" xmlns="http://www.w3.org/2000/svg">
<g clip-path="url(#clip0_36_38)">
<path d="M24.7293 11.9906L17.6856 19.0889L21.1475 20.1433L21.3248 20.2769C21.5306 20.4812 21.6306 20.7495 21.6246 21.0253L21.6075 22.0931L15.171 21.623C14.7963 21.6315 14.4351 21.4986 14.1583 21.2239L9.54438 16.6455C8.99781 16.1031 8.97269 15.092 9.53618 14.5242L12.6072 11.4293C13.0369 10.9963 13.6587 10.8666 14.1544 11.0768L19.2106 12.9948L20.1611 13.7548L23.3096 10.5818C23.4964 10.3936 23.7504 10.2872 24.0156 10.2862C24.2808 10.2852 24.5356 10.3896 24.7238 10.5764C24.9121 10.7632 25.0184 11.0171 25.0195 11.2823C25.0205 11.5475 24.9161 11.8023 24.7293 11.9906ZM7.07089 17.0086L12.7496 22.6435L10.6365 24.773L4.95778 19.1381L7.07089 17.0086Z" fill="black"/>
</g>
<defs>
<clipPath id="clip0_36_38">
<rect width="24" height="24" fill="white" transform="translate(16.9048) rotate(44.7786)"/>
</clipPath>
</defs>
</svg>
