<svg width="48" height="48" viewBox="0 0 48 48" fill="none" xmlns="http://www.w3.org/2000/svg">
<path d="M32 36H14V8H32V36ZM23 44C22.2044 44 21.4413 43.6839 20.8787 43.1213C20.3161 42.5587 20 41.7956 20 41C20 40.2043 20.3161 39.4413 20.8787 38.8787C21.4413 38.3161 22.2044 38 23 38C23.7956 38 24.5587 38.3161 25.1213 38.8787C25.6839 39.4413 26 40.2043 26 41C26 41.7956 25.6839 42.5587 25.1213 43.1213C24.5587 43.6839 23.7956 44 23 44ZM31 2H15C13.6739 2 12.4021 2.52678 11.4645 3.46447C10.5268 4.40215 10 5.67392 10 7V41C10 42.3261 10.5268 43.5979 11.4645 44.5355C12.4021 45.4732 13.6739 46 15 46H31C32.3261 46 33.5979 45.4732 34.5355 44.5355C35.4732 43.5979 36 42.3261 36 41V7C36 5.67392 35.4732 4.40215 34.5355 3.46447C33.5979 2.52678 32.3261 2 31 2Z" fill="white"/>
</svg>
