<svg width="64" height="64" viewBox="0 0 64 64" fill="none" xmlns="http://www.w3.org/2000/svg">
<path d="M56 10.6667H7.99996C6.58547 10.6667 5.22892 11.2286 4.22872 12.2288C3.22853 13.229 2.66663 14.5855 2.66663 16V50.6667C2.66663 52.0812 3.22853 53.4377 4.22872 54.4379C5.22892 55.4381 6.58547 56 7.99996 56H56C57.4144 56 58.771 55.4381 59.7712 54.4379C60.7714 53.4377 61.3333 52.0812 61.3333 50.6667V16C61.3333 14.5855 60.7714 13.229 59.7712 12.2288C58.771 11.2286 57.4144 10.6667 56 10.6667ZM7.99996 50.6667V16H29.3333V50.6667H7.99996ZM56 50.6667H34.6666V16H56V50.6667ZM37.3333 25.3334H53.3333V29.3334H37.3333V25.3334ZM37.3333 32H53.3333V36H37.3333V32ZM37.3333 38.6667H53.3333V42.6667H37.3333V38.6667Z" fill="white"/>
</svg>
