<svg width="24" height="24" viewBox="0 0 24 24" fill="none" xmlns="http://www.w3.org/2000/svg">
<path d="M12.04 2.00006C6.58005 2.00006 2.13005 6.45006 2.13005 11.9101C2.13005 13.6601 2.59005 15.3601 3.45005 16.8601L2.05005 22.0001L7.30005 20.6201C8.75005 21.4101 10.38 21.8301 12.04 21.8301C17.5 21.8301 21.9501 17.3801 21.9501 11.9201C21.9501 9.27006 20.92 6.78006 19.05 4.91006C18.1332 3.98399 17.0412 3.24973 15.8377 2.75011C14.6341 2.25049 13.3432 1.99552 12.04 2.00006ZM12.05 3.67006C14.25 3.67006 16.31 4.53006 17.87 6.09006C18.6357 6.85541 19.2426 7.76438 19.6562 8.76482C20.0698 9.76526 20.2818 10.8375 20.2801 11.9201C20.2801 16.4601 16.58 20.1501 12.04 20.1501C10.56 20.1501 9.11005 19.7601 7.85005 19.0001L7.55005 18.8301L4.43005 19.6501L5.26005 16.6101L5.06005 16.2901C4.23399 14.9787 3.79706 13.4599 3.80005 11.9101C3.81005 7.37006 7.50005 3.67006 12.05 3.67006ZM8.53005 7.33006C8.37005 7.33006 8.10005 7.39006 7.87005 7.64006C7.65005 7.89006 7.00005 8.50006 7.00005 9.71006C7.00005 10.9301 7.89005 12.1001 8.00005 12.2701C8.14005 12.4401 9.76005 14.9401 12.25 16.0001C12.84 16.2701 13.3 16.4201 13.66 16.5301C14.25 16.7201 14.79 16.6901 15.22 16.6301C15.7 16.5601 16.68 16.0301 16.89 15.4501C17.1 14.8701 17.1 14.3801 17.04 14.2701C16.97 14.1701 16.81 14.1101 16.56 14.0001C16.31 13.8601 15.09 13.2601 14.87 13.1801C14.64 13.1001 14.5 13.0601 14.31 13.3001C14.15 13.5501 13.67 14.1101 13.53 14.2701C13.38 14.4401 13.24 14.4601 13 14.3401C12.74 14.2101 11.94 13.9501 11 13.1101C10.26 12.4501 9.77005 11.6401 9.62005 11.3901C9.50005 11.1501 9.61005 11.0001 9.73005 10.8901C9.84005 10.7801 10 10.6001 10.1 10.4501C10.23 10.3101 10.27 10.2001 10.35 10.0401C10.43 9.87006 10.39 9.73006 10.33 9.61006C10.27 9.50006 9.77005 8.26006 9.56005 7.77006C9.36005 7.29006 9.16005 7.35006 9.00005 7.34006C8.86005 7.34006 8.70005 7.33006 8.53005 7.33006Z" fill="#44C24F"/>
</svg>
