<svg width="52" height="52" viewBox="0 0 52 52" fill="none" xmlns="http://www.w3.org/2000/svg">
<path d="M26 6.5C28.2985 6.5 30.5029 7.41309 32.1282 9.03841C33.7535 10.6637 34.6666 12.8681 34.6666 15.1667C34.6666 17.4652 33.7535 19.6696 32.1282 21.2949C30.5029 22.9202 28.2985 23.8333 26 23.8333C23.7014 23.8333 21.497 22.9202 19.8717 21.2949C18.2464 19.6696 17.3333 17.4652 17.3333 15.1667C17.3333 12.8681 18.2464 10.6637 19.8717 9.03841C21.497 7.41309 23.7014 6.5 26 6.5ZM34.6666 29.3367C34.6666 31.6333 34.06 36.985 29.9216 42.965L28.1666 32.5L30.2033 28.4267C28.86 28.275 27.4516 28.1667 26 28.1667C24.5483 28.1667 23.14 28.275 21.7966 28.4267L23.8333 32.5L22.0783 42.965C17.94 36.985 17.3333 31.6333 17.3333 29.3367C12.155 30.8533 8.66663 33.5833 8.66663 36.8333V45.5H43.3333V36.8333C43.3333 33.5833 39.8666 30.8533 34.6666 29.3367Z" fill="white"/>
</svg>
