<svg width="26" height="24" viewBox="0 0 26 24" fill="none" xmlns="http://www.w3.org/2000/svg">
<path d="M20.2259 3C20.7905 3 21.332 3.21071 21.7313 3.58579C22.1306 3.96086 22.3549 4.46957 22.3549 5V19C22.3549 19.5304 22.1306 20.0391 21.7313 20.4142C21.332 20.7893 20.7905 21 20.2259 21H5.32264C4.75798 21 4.21645 20.7893 3.81718 20.4142C3.41791 20.0391 3.1936 19.5304 3.1936 19V5C3.1936 4.46957 3.41791 3.96086 3.81718 3.58579C4.21645 3.21071 4.75798 3 5.32264 3H20.2259ZM19.6936 18.5V13.2C19.6936 12.3354 19.328 11.5062 18.6772 10.8948C18.0264 10.2835 17.1437 9.94 16.2233 9.94C15.3184 9.94 14.2646 10.46 13.7536 11.24V10.13H10.7836V18.5H13.7536V13.57C13.7536 12.8 14.4136 12.17 15.2333 12.17C15.6285 12.17 16.0076 12.3175 16.2871 12.5801C16.5666 12.8426 16.7236 13.1987 16.7236 13.57V18.5H19.6936ZM7.32393 8.56C7.79824 8.56 8.25312 8.383 8.58851 8.06794C8.92389 7.75288 9.11231 7.32556 9.11231 6.88C9.11231 5.95 8.31393 5.19 7.32393 5.19C6.84679 5.19 6.3892 5.36805 6.05182 5.68499C5.71443 6.00193 5.52489 6.43178 5.52489 6.88C5.52489 7.81 6.33393 8.56 7.32393 8.56ZM8.8036 18.5V10.13H5.85489V18.5H8.8036Z" fill="#0176B5"/>
</svg>
