<svg width="35" height="34" viewBox="0 0 35 34" fill="none" xmlns="http://www.w3.org/2000/svg">
<g clip-path="url(#clip0_36_32)">
<path d="M24.9622 11.9907L17.9185 19.089L21.3804 20.1434L21.5577 20.2771C21.7635 20.4813 21.8636 20.7496 21.8575 21.0254L21.8405 22.0932L15.4039 21.6231C15.0292 21.6316 14.668 21.4987 14.3912 21.224L9.77729 16.6456C9.23072 16.1032 9.2056 15.0922 9.76909 14.5243L12.8401 11.4294C13.2698 10.9964 13.8916 10.8667 14.3874 11.0769L19.4435 12.9949L20.394 13.7549L23.5425 10.5819C23.7294 10.3937 23.9833 10.2873 24.2485 10.2863C24.5137 10.2853 24.7685 10.3897 24.9567 10.5765C25.145 10.7633 25.2513 11.0172 25.2524 11.2825C25.2534 11.5477 25.149 11.8024 24.9622 11.9907ZM7.3038 17.0087L12.9825 22.6437L10.8694 24.7732L5.19069 19.1382L7.3038 17.0087Z" fill="black"/>
</g>
<defs>
<clipPath id="clip0_36_32">
<rect width="24" height="24" fill="white" transform="translate(17.1377) rotate(44.7786)"/>
</clipPath>
</defs>
</svg>
