<svg width="26" height="24" viewBox="0 0 26 24" fill="none" xmlns="http://www.w3.org/2000/svg">
<path d="M12.7742 2C11.3762 2 9.99199 2.25866 8.70046 2.7612C7.40893 3.26375 6.23542 4.00035 5.24692 4.92893C3.25057 6.8043 2.12903 9.34784 2.12903 12C2.12903 16.42 5.18419 20.17 9.41032 21.5C9.94258 21.58 10.1129 21.27 10.1129 21V19.31C7.16419 19.91 6.53613 17.97 6.53613 17.97C6.04645 16.81 5.35451 16.5 5.35451 16.5C4.3858 15.88 5.42903 15.9 5.42903 15.9C6.49354 15.97 7.05774 16.93 7.05774 16.93C7.98387 18.45 9.54871 18 10.1555 17.76C10.2513 17.11 10.5281 16.67 10.8261 16.42C8.4629 16.17 5.98258 15.31 5.98258 11.5C5.98258 10.39 6.38709 9.5 7.07903 8.79C6.97258 8.54 6.6 7.5 7.18548 6.15C7.18548 6.15 8.07967 5.88 10.1129 7.17C10.9539 6.95 11.8694 6.84 12.7742 6.84C13.679 6.84 14.5945 6.95 15.4355 7.17C17.4687 5.88 18.3629 6.15 18.3629 6.15C18.9484 7.5 18.5758 8.54 18.4694 8.79C19.1613 9.5 19.5658 10.39 19.5658 11.5C19.5658 15.32 17.0748 16.16 14.701 16.41C15.0842 16.72 15.4355 17.33 15.4355 18.26V21C15.4355 21.27 15.6058 21.59 16.1487 21.5C20.3748 20.16 23.4194 16.42 23.4194 12C23.4194 10.6868 23.144 9.38642 22.609 8.17317C22.0741 6.95991 21.29 5.85752 20.3015 4.92893C19.313 4.00035 18.1394 3.26375 16.8479 2.7612C15.5564 2.25866 14.1721 2 12.7742 2Z" fill="black"/>
</svg>
