<svg width="27" height="24" viewBox="0 0 27 24" fill="none" xmlns="http://www.w3.org/2000/svg">
<path d="M13.5909 2C7.77868 2 3.04158 6.45 3.04158 11.91C3.04158 13.66 3.53126 15.36 4.44674 16.86L2.95642 22L8.54513 20.62C10.0887 21.41 11.8238 21.83 13.5909 21.83C19.4032 21.83 24.1403 17.38 24.1403 11.92C24.1403 9.27 23.0438 6.78 21.0532 4.91C20.0772 3.98392 18.9148 3.24967 17.6336 2.75005C16.3524 2.25043 14.9781 1.99546 13.5909 2ZM13.6016 3.67C15.9435 3.67 18.1364 4.53 19.7971 6.09C20.6121 6.85535 21.2582 7.76432 21.6985 8.76476C22.1387 9.7652 22.3644 10.8374 22.3626 11.92C22.3626 16.46 18.4238 20.15 13.5909 20.15C12.0155 20.15 10.4719 19.76 9.13061 19L8.81126 18.83L5.48997 19.65L6.37352 16.61L6.16061 16.29C5.28126 14.9787 4.81614 13.4598 4.81932 11.91C4.82997 7.37 8.75803 3.67 13.6016 3.67ZM9.85448 7.33C9.68416 7.33 9.39674 7.39 9.1519 7.64C8.91771 7.89 8.22578 8.5 8.22578 9.71C8.22578 10.93 9.17319 12.1 9.29029 12.27C9.43932 12.44 11.1638 14.94 13.8145 16C14.4425 16.27 14.9322 16.42 15.3155 16.53C15.9435 16.72 16.5184 16.69 16.9761 16.63C17.4871 16.56 18.5303 16.03 18.7538 15.45C18.9774 14.87 18.9774 14.38 18.9135 14.27C18.839 14.17 18.6687 14.11 18.4025 14C18.1364 13.86 16.8377 13.26 16.6035 13.18C16.3587 13.1 16.2096 13.06 16.0074 13.3C15.8371 13.55 15.3261 14.11 15.1771 14.27C15.0174 14.44 14.8684 14.46 14.6129 14.34C14.3361 14.21 13.4845 13.95 12.4838 13.11C11.6961 12.45 11.1745 11.64 11.0148 11.39C10.8871 11.15 11.0042 11 11.1319 10.89C11.249 10.78 11.4193 10.6 11.5258 10.45C11.6642 10.31 11.7067 10.2 11.7919 10.04C11.8771 9.87 11.8345 9.73 11.7706 9.61C11.7067 9.5 11.1745 8.26 10.9509 7.77C10.738 7.29 10.5251 7.35 10.3548 7.34C10.2058 7.34 10.0355 7.33 9.85448 7.33Z" fill="#44C24F"/>
</svg>
