<svg width="34" height="34" viewBox="0 0 34 34" fill="none" xmlns="http://www.w3.org/2000/svg">
<g clip-path="url(#clip0_36_34)">
<path d="M24.7294 11.9907L17.6857 19.089L21.1476 20.1434L21.3249 20.2771C21.5307 20.4813 21.6308 20.7496 21.6248 21.0254L21.6077 22.0932L15.1711 21.6231C14.7964 21.6316 14.4353 21.4987 14.1584 21.224L9.5445 16.6456C8.99793 16.1032 8.97281 15.0922 9.5363 14.5243L12.6074 11.4294C13.037 10.9964 13.6588 10.8667 14.1546 11.0769L19.2108 12.9949L20.1612 13.7549L23.3098 10.5819C23.4966 10.3937 23.7505 10.2873 24.0157 10.2863C24.2809 10.2853 24.5357 10.3897 24.724 10.5765C24.9122 10.7633 25.0186 11.0172 25.0196 11.2825C25.0206 11.5477 24.9162 11.8024 24.7294 11.9907ZM7.07101 17.0087L12.7497 22.6437L10.6366 24.7732L4.9579 19.1382L7.07101 17.0087Z" fill="black"/>
</g>
<defs>
<clipPath id="clip0_36_34">
<rect width="24" height="24" fill="white" transform="translate(16.9049) rotate(44.7786)"/>
</clipPath>
</defs>
</svg>
