<svg width="34" height="34" viewBox="0 0 34 34" fill="none" xmlns="http://www.w3.org/2000/svg">
<g clip-path="url(#clip0_36_36)">
<path d="M24.7294 11.9906L17.6857 19.0889L21.1476 20.1433L21.3249 20.2769C21.5307 20.4812 21.6308 20.7495 21.6248 21.0253L21.6077 22.0931L15.1711 21.623C14.7964 21.6315 14.4353 21.4986 14.1584 21.2239L9.5445 16.6455C8.99793 16.1031 8.97281 15.092 9.5363 14.5242L12.6074 11.4293C13.037 10.9963 13.6588 10.8666 14.1546 11.0768L19.2108 12.9948L20.1612 13.7548L23.3098 10.5818C23.4966 10.3936 23.7505 10.2872 24.0157 10.2862C24.2809 10.2852 24.5357 10.3896 24.724 10.5764C24.9122 10.7632 25.0186 11.0171 25.0196 11.2823C25.0206 11.5475 24.9162 11.8023 24.7294 11.9906ZM7.07101 17.0086L12.7497 22.6435L10.6366 24.773L4.9579 19.1381L7.07101 17.0086Z" fill="black"/>
</g>
<defs>
<clipPath id="clip0_36_36">
<rect width="24" height="24" fill="white" transform="translate(16.9049) rotate(44.7786)"/>
</clipPath>
</defs>
</svg>
